<svg id="Layer_1" data-name="Layer 1" xmlns="http://www.w3.org/2000/svg" viewBox="0 0 89 89" width="89" height="89"><title>Document</title><path id="Document_Scroll" data-name="Document Scroll" d="M83.66 74.76H24.92v3.168a6.159 6.159 0 0 1 -5.696 6.835h0a1.78 1.78 0 0 1 0 -3.56c0.676 0 2.492 -0.249 2.492 -3.275V72.98a1.78 1.78 0 0 1 1.78 -1.78H78.32V1.78a1.78 1.78 0 0 0 -1.78 -1.78H8.9A1.78 1.78 0 0 0 7.12 1.78V78.32H7.12a10.68 10.68 0 0 0 10.68 10.68H74.76a10.68 10.68 0 0 0 10.68 -10.68v-1.78A1.78 1.78 0 0 0 83.66 74.76ZM21.36 14.24H56.96V17.8H21.36ZM21.36 24.92H64.08V28.48H21.36Zm0 10.68H64.08v3.56H21.36Zm0 10.68H64.08v3.56H21.36Zm0 10.68h32.04v3.56H21.36Z" fill="#00aeef"/></svg>